<?xml version="1.0" encoding="UTF-8" standalone="no"?><!DOCTYPE svg PUBLIC "-//W3C//DTD SVG 1.1//EN" "http://www.w3.org/Graphics/SVG/1.1/DTD/svg11.dtd"><svg width="100%" height="100%" viewBox="0 0 100 100" version="1.1" xmlns="http://www.w3.org/2000/svg" xmlns:xlink="http://www.w3.org/1999/xlink" xml:space="preserve" xmlns:serif="http://www.serif.com/" style="fill-rule:evenodd;clip-rule:evenodd;stroke-linejoin:round;stroke-miterlimit:1.41421;"><path d="M0,50l25,-43.301l50,0l25,43.301l-25,43.301l-50,0l-25,-43.301Z" class="fill-primary"/><path d="M33.173,42.938c1.618,-7.909 8.621,-13.867 17.006,-13.867c8.272,0 15.201,5.8 16.938,13.552c0.385,-0.034 0.775,-0.052 1.169,-0.052c7.194,0 13.035,5.842 13.035,13.036c0,7.195 -5.841,13.036 -13.035,13.036c-4.733,0 -31.694,0.286 -36.572,0.286c-7.194,0 -13.035,-5.842 -13.035,-13.036c0,-7.195 5.841,-13.036 13.035,-13.036c0.493,0 0.98,0.028 1.459,0.081Z" style="fill:#fff;"/></svg>